<?xml version="1.0" encoding="UTF-8"?>
<!DOCTYPE svg PUBLIC "-//W3C//DTD SVG 1.1//EN" "http://www.w3.org/Graphics/SVG/1.1/DTD/svg11.dtd">
<!-- Creator: CorelDRAW 2021.5 -->
<svg xmlns="http://www.w3.org/2000/svg" xml:space="preserve" width="30mm" height="30mm" version="1.1" style="shape-rendering:geometricPrecision; text-rendering:geometricPrecision; image-rendering:optimizeQuality; fill-rule:evenodd; clip-rule:evenodd"
viewBox="0 0 3000 3000"
 xmlns:xlink="http://www.w3.org/1999/xlink"
 xmlns:xodm="http://www.corel.com/coreldraw/odm/2003">
 <defs>
  <style type="text/css">
   <![CDATA[
    .fil0 {fill:black}
   ]]>
  </style>
 </defs>
 <g id="Camada_x0020_1">
  <metadata id="CorelCorpID_0Corel-Layer"/>
  <g id="_2717315316576">
   <path class="fil0" d="M2213.63 1040.62c0,-62.31 59.79,-86.94 143.1,20.97 27.26,35.3 211.4,218.36 241.15,256.89 35.13,45.5 180.91,190.5 238.35,253.84 41.44,45.71 35.41,101.11 -36.66,101.11 -20.42,0 -65,-56.26 -80.57,-71.77 -27.78,-27.69 -45.45,-51.42 -73.24,-79.11 -13.19,-13.14 -26.07,-24.28 -37.82,-38.35 -52.99,-63.39 -225.76,-237.68 -256.16,-277.04 -22.92,-29.7 -52.01,-49.5 -74.56,-77.78 -34.38,-43.09 -63.59,-56.48 -63.59,-88.76zm-1335.93 632.81c-47.53,0 -52.74,-24.75 -52.74,-52.73 0,-36.28 83.21,-107.26 109.94,-136.16l424.13 -454.77c78.06,-98.53 116.32,-6.47 116.32,-0.87 0,27.55 -11.54,36.6 -24.09,52.09l-112.09 122.28c-14.11,13.95 -24.34,23.86 -38.25,37.92 -15.84,16.01 -19.61,25.34 -34.92,41.25l-302 319.1c-21.74,22.59 -48.02,71.89 -86.3,71.89zm966.79 -644.53c-73.01,0 -108.18,-34.23 -154.01,-68.64 -44.09,-33.11 -84.11,-62.38 -126.43,-96.23l-253.61 -191.7c-43.7,-32.79 -82.26,-63.15 -126.39,-96.27l-316.73 -239.9c-20.2,-16.52 -48.22,-29.53 -48.22,-63.12 0,-31.47 30.17,-87.75 115.86,-16.24 19.94,16.64 40.01,30.62 59.92,45.54l770.15 583.37c38.85,29.41 34.3,37.72 85.32,37.72 37.62,0 416.79,-303.95 477.12,-349.05 81.54,-60.97 156.36,-118.73 236.88,-179.13 37.87,-28.42 225.15,-174.94 241.08,-174.94 14.84,0 30.83,5.31 39.45,13.29 62.91,58.2 -48.5,116.55 -89.68,147.42 -44.59,33.43 -82.61,63.41 -126.4,96.26l-506.41 384.21c-43.52,32.6 -85.89,61.85 -126.91,95.75 -37.8,31.24 -85.12,71.66 -150.99,71.66zm-1160.15 -884.76l0 744.14c0,11.2 85.85,134.63 98.44,153.51 36.74,55.09 75.45,104.13 48.96,187.24 -20.07,62.95 -98.41,110.79 -159.19,157.23 -134.6,102.86 -129.06,81.48 -9.22,278.88 11.82,19.47 94.39,143.06 120.62,143.06l2179.68 0c13.67,0 29.3,-15.64 29.3,-29.3l0 -1664.06c0,-22.98 -28.98,-29.3 -52.73,-29.3l-2208.99 0c-34.92,0 -46.87,23.65 -46.87,58.6z"/>
   <path class="fil0" d="M-7.07 1017.18c0,136.65 14.21,224.79 57.74,340.7l39.91 100.72c8.32,17.35 13.04,32.28 21.98,48.33 125.49,225.19 172.24,298.63 344.99,504.62 11.97,14.27 22.86,21.68 34.3,36.01 13.85,17.35 16.84,21.35 32.91,37.4l281.75 286.61c17.37,13.85 21.35,16.84 37.41,32.91 16.03,16.05 25.28,19.49 41.21,34.96 214.76,208.59 652.83,481.7 924.05,488.05 84.07,1.97 171.66,4.57 251.43,-24.27 75.89,-27.43 100.03,-75.7 139.45,-141.8 142.86,-239.48 169.13,-169.81 -162.21,-390.72 -29.63,-19.76 -276.06,-187.5 -287.11,-187.5 -88.83,0 -171.8,269.53 -304.68,269.53 -89.08,0 -94.06,-18.27 -195.22,-74.32 -25.51,-14.14 -46.11,-30 -70.82,-46.37 -26.91,-17.83 -43.41,-31.04 -67.18,-50 -22.81,-18.19 -42.05,-34.75 -64.4,-52.79l-122.4 -111.97c-11.08,-11.08 -17.89,-18.56 -29.18,-29.41 -14.63,-14.06 -22.79,-15.77 -35.09,-29.37 -11.2,-12.39 -12.97,-18.53 -26.44,-32.15l-87.41 -88.37c-114.91,-144.04 -142.64,-150.34 -247.18,-344.62 -28.39,-52.76 -33.2,-49.09 -33.2,-113.29 0,-84.09 73.76,-121.27 121.22,-160.02 26.72,-21.82 51.81,-41.71 78.81,-61.82 105.14,-78.33 84.11,-75.6 -16.04,-225.82l-236.7 -355.1c-49.28,-74.89 -64.34,-70.41 -130.05,-30.38 -176.59,107.56 -291.85,133.68 -291.85,370.25z"/>
  </g>
 </g>
</svg>
