<svg width="24" height="20" viewBox="0 0 24 20" fill="none" xmlns="http://www.w3.org/2000/svg">
<g id="Group 8">
<path id="Vector" d="M19 20H5C3.67392 20 2.40215 19.4732 1.46447 18.5355C0.526784 17.5979 0 16.3261 0 15L0 5C0 3.67392 0.526784 2.40215 1.46447 1.46447C2.40215 0.526784 3.67392 0 5 0H19C19.6566 0 20.3068 0.129329 20.9134 0.380602C21.52 0.631876 22.0712 1.00017 22.5355 1.46447C22.9998 1.92876 23.3681 2.47995 23.6194 3.08658C23.8707 3.69321 24 4.34339 24 5V15C24 15.6566 23.8707 16.3068 23.6194 16.9134C23.3681 17.52 22.9998 18.0712 22.5355 18.5355C22.0712 18.9998 21.52 19.3681 20.9134 19.6194C20.3068 19.8707 19.6566 20 19 20ZM5 2C4.20435 2 3.44129 2.31607 2.87868 2.87868C2.31607 3.44129 2 4.20435 2 5V15C2 15.7956 2.31607 16.5587 2.87868 17.1213C3.44129 17.6839 4.20435 18 5 18H19C19.7956 18 20.5587 17.6839 21.1213 17.1213C21.6839 16.5587 22 15.7956 22 15V5C22 4.20435 21.6839 3.44129 21.1213 2.87868C20.5587 2.31607 19.7956 2 19 2H5Z" fill="black"/>
<path id="Vector_2" d="M12 11.2801C11.3327 11.28 10.6722 11.1464 10.0573 10.8871C9.44248 10.6277 8.88577 10.248 8.42 9.7701L1.57 2.7701C1.38302 2.58047 1.27903 2.32433 1.28091 2.05803C1.28278 1.79173 1.39037 1.53708 1.58 1.3501C1.76963 1.16312 2.02577 1.05913 2.29207 1.06101C2.55837 1.06288 2.81302 1.17047 3 1.3601L9.84 8.3601C10.414 8.92321 11.1859 9.23866 11.99 9.23866C12.7941 9.23866 13.566 8.92321 14.14 8.3601L20.98 1.3601C21.0719 1.26555 21.1816 1.19003 21.3027 1.13785C21.4238 1.08568 21.554 1.05786 21.6859 1.05601C21.8177 1.05415 21.9487 1.07828 22.0712 1.12703C22.1937 1.17577 22.3054 1.24817 22.4 1.3401C22.4946 1.43202 22.5701 1.54167 22.6222 1.66278C22.6744 1.7839 22.7022 1.9141 22.7041 2.04596C22.7059 2.17782 22.6818 2.30875 22.6331 2.43128C22.5843 2.55382 22.5119 2.66555 22.42 2.7601L15.57 9.7601C15.1062 10.2386 14.5515 10.6195 13.9385 10.8805C13.3254 11.1415 12.6663 11.2774 12 11.2801Z" fill="black"/>
</g>
</svg>
