<svg width="48" height="48" viewBox="0 0 48 48" fill="none" xmlns="http://www.w3.org/2000/svg">
<path d="M47.3061 33.5637C47.3061 42.1734 42.1734 47.3061 33.5637 47.3061H30.7489C29.448 47.3061 28.3836 46.2417 28.3836 44.9408V31.293C28.3836 30.6543 28.904 30.1103 29.5426 30.1103L33.7056 30.0394C34.0367 30.0157 34.3206 29.7792 34.3915 29.448L35.2194 24.9303C35.2903 24.5045 34.9592 24.1024 34.5098 24.1024L29.4717 24.1734C28.8094 24.1734 28.289 23.653 28.2654 23.0144L28.1708 17.2194C28.1708 16.841 28.4783 16.5098 28.8804 16.5098L34.5571 16.4152C34.9592 16.4152 35.2667 16.1077 35.2667 15.7056L35.1721 10.0289C35.1721 9.62676 34.8646 9.3193 34.4625 9.3193L28.0762 9.41393C24.1497 9.48489 21.0275 12.7017 21.0985 16.6281L21.2168 23.1327C21.2404 23.795 20.7201 24.3153 20.0578 24.339L17.2194 24.3863C16.8173 24.3863 16.5098 24.6938 16.5098 25.0959L16.5808 29.5899C16.5808 29.992 16.8883 30.2995 17.2904 30.2995L20.1287 30.2522C20.791 30.2522 21.3114 30.7726 21.335 31.4112L21.5479 44.8935C21.5716 46.218 20.5072 47.3061 19.1826 47.3061H13.7424C5.13271 47.3061 0 42.1734 0 33.54V13.7424C0 5.13271 5.13271 0 13.7424 0H33.5637C42.1734 0 47.3061 5.13271 47.3061 13.7424V33.5637Z" fill="#3E4095"/>
</svg>
