<?xml version="1.0" encoding="UTF-8"?>
<!DOCTYPE svg PUBLIC "-//W3C//DTD SVG 1.1//EN" "http://www.w3.org/Graphics/SVG/1.1/DTD/svg11.dtd">
<!-- Creator: CorelDRAW 2021.5 -->
<svg xmlns="http://www.w3.org/2000/svg" xml:space="preserve" width="30mm" height="30mm" version="1.1" style="shape-rendering:geometricPrecision; text-rendering:geometricPrecision; image-rendering:optimizeQuality; fill-rule:evenodd; clip-rule:evenodd"
viewBox="0 0 3000 3000"
 xmlns:xlink="http://www.w3.org/1999/xlink"
 xmlns:xodm="http://www.corel.com/coreldraw/odm/2003">
 <defs>
  <style type="text/css">
   <![CDATA[
    .fil0 {fill:black}
   ]]>
  </style>
 </defs>
 <g id="Camada_x0020_1">
  <metadata id="CorelCorpID_0Corel-Layer"/>
  <path class="fil0" d="M1117.93 1225.73c0,-87.88 35.3,-177.14 89.19,-238.94 10.62,-12.18 9.98,-15.33 20.76,-26.11l51.55 -42.2c103.58,-70.97 249.89,-90.34 365.94,-32.69 40.02,19.88 81.14,43.5 112.61,74.89 9.62,9.59 11.52,14.85 20.72,26.15 32.38,39.75 30.49,39 54.18,86.45 45.56,91.29 44.84,214.19 0,304.9 -96.32,194.83 -315.92,275.57 -492.4,187.5 -47.45,-23.69 -46.7,-21.8 -86.45,-54.18l-46.87 -46.87c-52.9,-64.93 -89.23,-148.28 -89.23,-238.9zm-580.08 -17.58c0,223.17 24.07,355.67 132.9,552.65 52.06,94.25 123.19,168.23 188.61,250.85l533.91 649.68c65.04,84.25 129.81,89.13 196.82,3.36l332.38 -405.9c82.31,-97.39 339.84,-402.4 392.64,-497.99 34.11,-61.74 67.69,-129.87 88.57,-204.4 45.77,-163.35 44.33,-182.92 44.33,-348.25 0,-228.2 -116.32,-482.78 -273.93,-640.14 -83.01,-82.88 -156.17,-134.55 -267.02,-190.01 -241.57,-120.86 -586.78,-120.9 -828.26,0 -221.91,111.1 -347.65,247.09 -453.14,460.92 -40.36,81.8 -87.81,247.23 -87.81,369.23z"/>
 </g>
</svg>
