<svg fill="none" height="24" viewBox="0 0 24 24" width="24" xmlns="http://www.w3.org/2000/svg"><path d="m15.0505 9h-9.5505c-1.38071 0-2.5-1.11929-2.5-2.5s1.11929-2.5 2.5-2.5h9.5505m-6.10101 16h9.55051c1.3807 0 2.5-1.1193 2.5-2.5s-1.1193-2.5-2.5-2.5h-9.55051m-5.94949 2.5c0 1.933 1.567 3.5 3.5 3.5s3.5-1.567 3.5-3.5-1.567-3.5-3.5-3.5-3.5 1.567-3.5 3.5zm18-11c0 1.933-1.567 3.5-3.5 3.5s-3.5-1.567-3.5-3.5 1.567-3.5 3.5-3.5 3.5 1.567 3.5 3.5z" stroke="#000" stroke-linecap="round" stroke-linejoin="round" stroke-width="2"/></svg>