<?xml version="1.0" encoding="UTF-8"?>
<!DOCTYPE svg PUBLIC "-//W3C//DTD SVG 1.1//EN" "http://www.w3.org/Graphics/SVG/1.1/DTD/svg11.dtd">
<!-- Creator: CorelDRAW 2021.5 -->
<svg xmlns="http://www.w3.org/2000/svg" xml:space="preserve" width="30mm" height="30mm" version="1.1" style="shape-rendering:geometricPrecision; text-rendering:geometricPrecision; image-rendering:optimizeQuality; fill-rule:evenodd; clip-rule:evenodd"
viewBox="0 0 3000 3000"
 xmlns:xlink="http://www.w3.org/1999/xlink"
 xmlns:xodm="http://www.corel.com/coreldraw/odm/2003">
 <defs>
  <style type="text/css">
   <![CDATA[
    .fil0 {fill:black}
   ]]>
  </style>
 </defs>
 <g id="Camada_x0020_1">
  <metadata id="CorelCorpID_0Corel-Layer"/>
  <path class="fil0" d="M1182.38 909.41c0,42.35 156.29,182.65 191.9,218.27 53.48,53.48 88.25,71.04 81.43,118.85 -30.56,214.31 8.57,175.18 -205.74,205.74 -47.78,6.81 -64.26,-26.83 -118.86,-81.43 -35.98,-35.98 -175.35,-191.9 -218.26,-191.9 -38.08,0 -54.74,32.14 -62.16,66.75 -33.47,155.96 5.65,343.63 101.72,450.34 12.88,14.31 19.15,18.38 30.73,33.72 62.78,83.19 231.76,164.04 351.59,164.04 189.19,0 201.46,-35.16 240.23,-35.16 4.23,0 360.46,350.4 380.86,380.86 -83.48,19.45 -146.51,128.91 -503.91,128.91 -165.1,0 -401.88,-94.89 -514.21,-200.63l-55.78 -49.69c-138.68,-138.68 -250.32,-368.51 -250.32,-569.99 0,-157.04 13.92,-275.53 82.01,-410.19 23.53,-46.53 42.97,-86.34 75.26,-129.81 13.49,-18.16 28.17,-40.11 43.36,-56.25 10.68,-11.34 15.18,-14.08 25.42,-27.32 116.1,-150.13 397.73,-278.78 594.26,-278.78 157.04,0 275.53,13.92 410.19,82.01 137.45,69.51 118.88,66.34 212.64,144.78 159.99,133.86 279.52,387.32 279.52,593.52 0,216.12 -28.14,312.19 -117.19,480.47 -30.05,-20.12 -375,-370.72 -375,-375 0,-20.9 12.08,-39.42 17.65,-58.52 43.38,-148.68 15.3,-327.11 -72.81,-448.82 -132.45,-182.97 -333.01,-264.95 -557.78,-216.93 -32.26,6.89 -66.75,24.41 -66.75,62.16zm198.83 -902.34l164.46 0c238.47,0 185.04,65.14 201.41,167.72 24.78,155.24 155.64,277.59 320.07,277.59 199.48,0 234.47,-134.76 316.41,-134.76 49.5,0 181.49,132.03 213.41,173.3 46.8,60.52 148.74,120.15 51.76,214.92 -195.07,190.61 -66.57,531.88 192.32,554.67 58.87,5.19 136.73,9.6 145.36,89.02 3.62,33.32 5.66,67.42 6.52,101.79l0 84.1c-0.98,43.79 -3.31,87.34 -6.15,129.57 -7.21,107.39 -102.56,90.51 -151.88,94.2 -58.63,4.4 -122.57,37.15 -167.72,72.52 -23.9,18.72 -38.76,36.17 -56.85,60.34 -31.34,41.87 -62.71,107.08 -62.71,177.52 0,296.53 246.08,250.58 77.7,423.41 -16.29,16.72 -20.79,24.46 -35.27,40.9l-158.64 146.05c-44.65,36.8 -97.89,27.82 -137.34,-11.11 -22.84,-22.56 -30.16,-29.84 -57.99,-47.48 -14.97,-9.49 -53.32,-26.43 -72.91,-32.55 -50.69,-15.86 -74.68,-15.31 -125.32,-15.31 -128.84,0 -237.92,98.62 -277.18,191.56 -47.81,113.18 -12.72,148.66 -41.47,192.91 -20.77,31.96 -65.45,44.62 -114.59,49.12l-152.7 0c-296.38,0 -163.78,-75.83 -238.42,-253.77 -86.87,-207.11 -372.4,-255.32 -536.54,-93.46 -38.86,38.33 -83.85,55.86 -131.87,11.88 -50.25,-46.01 -63.38,-52.18 -120.02,-108.49l-72.24 -80.11c-35.71,-45.91 -99.19,-93.23 -15.69,-174.82 190.03,-185.68 75.38,-527.2 -191.82,-555.17 -60.2,-6.31 -137.21,-8.91 -145.86,-88.52 -4.25,-39.12 -6.45,-67.7 -6.52,-108.7l0 -1.97 0 -152.4c3.97,-57.97 16.12,-112.12 49.09,-132.49 40.64,-25.12 215.87,10.23 333.51,-146.96 98.95,-132.22 78.54,-320.29 -38.45,-433.78 -38.78,-37.61 -47.48,-80.23 -11.14,-125.58 59.74,-74.55 116.02,-131 187.06,-193.8l41.45 -34.72c83.07,-68.47 147.02,27.96 195.33,58.59 62.42,39.58 126.68,47.86 198.23,47.86 128.44,0 238.32,-98.85 277.2,-191.54 47.85,-114.06 12.7,-148.68 41.45,-192.93 20.42,-31.41 65,-44.33 114.55,-49.12z"/>
 </g>
</svg>
